<svg width="12" height="12" viewBox="0 0 12 12" xmlns="http://www.w3.org/2000/svg"><g fill="none" fill-rule="evenodd"><g transform="translate(-1118 -621)"><rect stroke="#D8D8D8" x="919.5" y="606.5" width="226" height="42"/><path d="M1121,622.5 C1121,622.776 1120.7765,623 1120.5,623 C1120.2235,623 1120,622.776 1120,622.5 L1120,621.5 C1120,621.224 1120.2235,621 1120.5,621 C1120.7765,621 1121,621.224 1121,621.5 L1121,622.5 Z M1128,621.5 C1128,621.224 1127.7765,621 1127.5,621 C1127.2235,621 1127,621.224 1127,621.5 L1127,622.5 C1127,622.776 1127.2235,623 1127.5,623 C1127.7765,623 1128,622.776 1128,622.5 L1128,621.5 Z M1119,632 L1129,632 L1129,625 L1119,625 L1119,632 Z M1130,622 L1130,633 L1118,633 L1118,622 L1119.5,622 L1119.5,622.5 C1119.5,623.0515 1119.9485,623.5 1120.5,623.5 C1121.0515,623.5 1121.5,623.0515 1121.5,622.5 L1121.5,622 L1126.5,622 L1126.5,622.5 C1126.5,623.0515 1126.9485,623.5 1127.5,623.5 C1128.0515,623.5 1128.5,623.0515 1128.5,622.5 L1128.5,622 L1130,622 Z M1120,628 L1122,628 L1122,626 L1120,626 L1120,628 Z M1123,631 L1125,631 L1125,629 L1123,629 L1123,631 Z M1120,631 L1122,631 L1122,629 L1120,629 L1120,631 Z M1126,628 L1128,628 L1128,626 L1126,626 L1126,628 Z M1123,628 L1125,628 L1125,626 L1123,626 L1123,628 Z M1126,631 L1128,631 L1128,629 L1126,629 L1126,631 Z" fill="#000"/></g></g></svg>